<svg xmlns="http://www.w3.org/2000/svg" viewBox="0 0 1125.36 1738.71"><defs><style>.cls-1{fill:#142042;}.cls-2{fill:#a75f28;}.cls-3{fill:#c3f1e6;}.cls-4{fill:#79bcdc;}.cls-5{fill:#e6e6e6;}.cls-6{fill:#a67c52;}.cls-7{fill:#050505;}.cls-8{fill:#726130;}.cls-9{fill:#5f4e14;}.cls-10{fill:#abddd0;}.cls-11{fill:#bdbdbd;}</style></defs><title>Asset 121</title><g id="Layer_2" data-name="Layer 2"><g id="Layer_1-2" data-name="Layer 1"><path class="cls-1" d="M886.89,319l40.47,209.08-6.75,94.42,87.24-15.36s81.37-65.57,88.12-85.81-74.19-107.91-74.19-107.91Z"/><path class="cls-2" d="M337.22,646.11C370.94,814.72,580,855.19,580,855.19v283.26h33.72L768.86,976.59l-27-188.84,121.4-101.17c276.52-80.93,80.94-161.87,80.94-161.87L863.28,248.19,613.74,174,411.41,248.19,363.73,503.94,341.67,622.1Z"/><path class="cls-3" d="M758.75,919.26S542.92,1222.76,583.39,926L374.31,1060.89l-40.46,202.34-101.17,472.1h728.4v-236S1116.2,1054.15,758.75,919.26Z"/><path class="cls-4" d="M938.69,1735.33l68.47,1.44a90.29,90.29,0,0,0,92.18-90.27V1135.62a159,159,0,0,0-159-159h-89l45.82,762.12Z"/><path class="cls-4" d="M1011.66,1044S910.49,915.89,809.33,976.59c0,0-155.85,53.95-37.46,381.06C771.87,1357.65,782.35,929.38,1011.66,1044Z"/><path d="M728.4,403.32s-67.45-94.43-128.15-27C600.25,376.34,654.21,356.1,728.4,403.32Z"/><path d="M492.34,376.34s-15.91-55.65-99-31.2C393.33,345.14,465.36,362.85,492.34,376.34Z"/><path d="M457.91,561.45c9.47-18.93,20-29.06,31.23-30.1,16.79-1.61,31.39,17.46,31.54,17.65l10.78-8.1c-.77-1-19.18-25.22-43.49-23-16.24,1.47-30.41,14.09-42.13,37.51Z"/><path d="M483,628.9c24.56,0,51.64-10.47,80.74-31.25l-7.85-11c-32.54,23.24-61.65,32.46-86.56,27.38a62.48,62.48,0,0,1-38.63-25.39l-11.56,7c.61,1,15.29,24.94,47.19,31.58A82.19,82.19,0,0,0,483,628.9Z"/><path class="cls-5" d="M445.13,1705l26.38-9.59a47.11,47.11,0,0,0,26.81-63.72l-158.23-349.2A31.82,31.82,0,0,0,292,1270.15h0a35.67,35.67,0,0,0-11.49,42.33Z"/><circle cx="627.23" cy="443.78" r="26.98"/><circle class="cls-6" cx="695.8" cy="561.64" r="60.62"/><path class="cls-6" d="M341.67,622.1a58.05,58.05,0,0,0,23.74-3.37,60.63,60.63,0,0,0-1.68-114.79Z"/><circle cx="418.15" cy="443.78" r="26.98"/><path class="cls-7" d="M871.84,633.57c31.59-37.91,96-44.75,96.65-44.82l-1.34-13.42c-2.87.29-70.59,7.5-105.68,49.61Z"/><path class="cls-4" d="M467.27,1000,387.8,1357.65S277,1026.77,467.27,1000Z"/><polygon class="cls-8" points="185.47 1364.39 151.75 1290.2 97.79 1175.55 3.37 1398.11 50.58 1425.09 43.84 1384.63 97.79 1229.5 171.98 1398.11 185.47 1364.39"/><polygon class="cls-9" points="290.01 1259.85 465.36 1704.98 405.71 1738.71 155.12 1738.71 0 1381.25 290.01 1259.85"/><path class="cls-2" d="M455.25,1506H443l-1.26-60.69s-40.47-60.7-67.45-47.22c0,0,0,54,13.49,54s-74.19-67.44-134.88,0c0,0,27,128.14,202.33,128.14S455.25,1506,455.25,1506Z"/><path class="cls-10" d="M445.13,1489.16l323.73,27v-87.68h6.75C741.88,996.82,924.91,1020,924.91,1020c162.8,36.62,73.26,469.2,73.26,469.2S951,1705,930.73,1705s-499.09-107.91-499.09-107.91Z"/><path class="cls-11" d="M1092.11,521S815.18,252.65,401.62,244.33L531.91.51S967-20.21,1123,202.17C1123,202.17,1138,384.19,1092.11,521Z"/></g></g></svg>